<svg xmlns="http://www.w3.org/2000/svg" xmlns:xlink="http://www.w3.org/1999/xlink" width="57" height="51" viewBox="0 0 57 51" fill="none"><g opacity="1" transform="translate(0 -0.00013188015873311087)  rotate(0 28.065172857753673 25.065)"><path id="路径 1" fill-rule="evenodd" style="fill:#FFFFFF" transform="translate(0 10.187364318097224)  rotate(0 19.91838823257444 18.9123599080972)" opacity="1" d="M9.23,4.16C-1.08,11.83 -2.49,27.24 3.69,37.82L10.06,34.03C7.13,29.67 6.07,23.76 6.92,18.56C8.16,10.07 15.19,3.83 24.14,3.92C27.36,3.96 30.72,4.76 33.27,6.72C37.78,10.26 39.15,16.22 36.84,21.36L38.3,21.99C39.73,19.02 40.25,15.58 39.49,12.34C37.43,3.36 27.99,-0.87 19.12,0.15C15.52,0.56 12.13,2.03 9.23,4.16Z " /><path id="路径 2" fill-rule="evenodd" style="fill:#FFFFFF" transform="translate(9.595768812276427 16.60309568998415)  rotate(0 23.26728845161546 16.76345215500793)" opacity="1" d="M2.07 23.51C4.68 28.3 9.71 31.57 15.07 32.86C27.9 35.94 41.57 27.94 46.53 16.39L39.6 13.69C38.12 17.57 35.55 20.96 32.19 23.5C26.04 28.21 17.15 29.74 10.29 25.57C4.46 22.24 1.8 15.54 4.01 9.26C5.32 5.91 8.2 2.93 11.79 1.9C12.51 1.7 13.25 1.59 13.99 1.56L13.99 0C12.22 -0.03 10.46 0.34 8.85 1.08C0.4 4.94 -2.31 15.78 2.07 23.51Z" /><path id="路径 3" fill-rule="evenodd" style="fill:#FFFFFF" transform="translate(12.482507589873512 0)  rotate(0 17.177031233801117 20.947753902154044)" opacity="1" d="M22.19,38.35C18.79,39.81 14.67,40.11 11.12,38.98C7.92,37.98 5.6,35.37 4.85,32.19L3.29,32.55C3.88,35.29 5.48,37.87 7.86,39.49C10.23,41.11 13.16,41.8 16.02,41.88C24.09,42.19 31.63,37.21 33.65,29.5C35.13,24 34.23,17.66 31.38,12.7C25.29,2.07 11.71,-1.46 0,0.53L1.38,7.65C2.96,7.32 4.55,7.09 6.16,6.96C12.4,6.48 19.03,7.9 23.77,11.99C26.57,14.39 28.51,17.59 29.33,21.13C29.93,23.58 30.14,26.18 29.72,28.65C28.99,33.01 26.26,36.41 22.19,38.35Z " /></g></svg>