<svg xmlns="http://www.w3.org/2000/svg" xmlns:xlink="http://www.w3.org/1999/xlink" width="101" height="52" viewBox="0 0 101 52" fill="none"><g opacity="1" transform="translate(0.019056885365472453 0)  rotate(0 50.024570024570025 26)"><path id="路径 4" fill-rule="evenodd" style="fill:#FFFFFF" transform="translate(-0.019289152042318847 9.094947017729282e-13)  rotate(0 11.013126046694975 25.761175340918445)" opacity="1" d="M16.38,16.51L21.69,16.51C21.76,15.45 21.76,14.32 21.76,13.25C21.76,7.73 21.1,5.17 19.33,3.19C18.09,1.84 15.73,0 11.6,0C8.38,0 4.52,1.13 2.49,4.11C0.13,7.52 0.13,12.97 0.06,16.8C0,19.63 0,22.39 0,25.23L0,33.24C0,40.18 0.19,43.87 1.97,46.77C2.56,47.72 3.29,48.58 4.13,49.33C6.29,51.1 8.52,51.52 11.14,51.52C11.8,51.52 14.09,51.52 16.25,50.67C18.29,49.82 20.84,48.19 21.7,42.88C21.88,41.44 21.97,40 21.96,38.55C22.03,36.78 22.03,35.01 22.03,33.24L16.65,33.24L16.65,36.93C16.65,39.48 16.71,43.45 14.55,45.22C13.69,45.95 12.59,46.33 11.47,46.28C10.81,46.28 8.06,46.21 6.82,43.8C5.83,41.96 5.96,39.27 5.9,37.28C5.77,33.53 5.7,29.84 5.7,26.09C5.7,18.57 5.77,12.49 6.36,9.64C7.22,5.6 10.16,5.24 11.6,5.24C12.67,5.21 13.72,5.56 14.55,6.24C16.12,7.51 16.25,9 16.32,11.06C16.38,12.9 16.38,14.75 16.38,16.51Z " /><path id="路径 5" fill-rule="evenodd" style="fill:#FFFFFF" transform="translate(27.702703127645037 0.7808771291706762)  rotate(0 2.8507879928343183 25.016234099533857)" opacity="1" d="M0,50.03L5.7,50.03L5.7,0L0,0L0,50.03Z " /><path id="路径 6" fill-rule="evenodd" style="fill:#FFFFFF" transform="translate(36.68205309347465 0.7808771291706762)  rotate(0 12.289220842532098 25.016234099533857)" opacity="1" d="M12.33,43.87L5.91,0L0,0L8.64,50.03L15.98,50.03L24.58,0L18.74,0L12.33,43.87Z " /><path id="路径 7" fill-rule="evenodd" style="fill:#FFFFFF" transform="translate(64.5363234922427 0.7808771291706762)  rotate(0 2.850787992834313 25.016234099533857)" opacity="1" d="M0,50.03L5.7,50.03L5.7,0L0,0L0,50.03Z " /><path id="路径 8" fill-rule="evenodd" style="fill:#FFFFFF" transform="translate(73.51567345807229 0.7808771291706762)  rotate(0 12.972009368963242 25.016234099533857)" opacity="1" d="M5.96,50.03L7.54,40.39L8.52,35.01L12.78,9.28L17.3,35.01L18.28,40.39L19.91,50.03L25.94,50.03L15.73,0L9.96,0L0,50.03L5.96,50.03Z " /></g></svg>