<svg xmlns="http://www.w3.org/2000/svg" xmlns:xlink="http://www.w3.org/1999/xlink" width="101" height="53" viewBox="0 0 101 53" fill="none"><g opacity="1" transform="translate(0.01953125 0.8476562500003979)  rotate(0 50 26)"><path id="路径 4" fill-rule="evenodd" style="fill:#4CD130" transform="translate(-0.019279677998270017 -0.847758798578468)  rotate(0 11.007716849226062 25.008097304470628)" opacity="1" d="M11.59,5.09C12.66,5.06 13.71,5.4 14.54,6.05C16.11,7.29 16.24,8.74 16.31,10.73C16.37,12.52 16.37,14.32 16.37,16.03L21.68,16.03C21.75,15 21.75,13.9 21.75,12.87C21.75,7.5 21.09,5.02 19.32,3.1C18.08,1.79 15.72,0 11.59,0C8.38,0 4.52,1.1 2.49,3.99C0.13,7.3 0.13,12.59 0.06,16.31C0,19.06 0,21.74 0,24.49L0,32.27C0,39.01 0.19,42.58 1.97,45.41C2.56,46.33 3.29,47.16 4.13,47.88C6.29,49.6 8.51,50.02 11.14,50.02C11.79,50.02 14.08,50.02 16.24,49.19C18.28,48.37 20.83,46.78 21.69,41.62C21.87,40.23 21.96,38.83 21.95,37.43C22.02,35.71 22.02,33.99 22.02,32.27L16.64,32.27L16.64,35.85C16.64,38.33 16.7,42.18 14.54,43.9C13.68,44.6 12.59,44.97 11.46,44.93C10.81,44.93 8.06,44.86 6.81,42.52C5.83,40.73 5.96,38.12 5.9,36.19C5.76,32.55 5.7,28.97 5.7,25.32C5.7,18.03 5.77,12.12 6.36,9.36C7.21,5.43 10.15,5.09 11.59,5.09Z " /><path id="路径 5" fill-rule="evenodd" style="fill:#4CD130" transform="translate(27.689096691924988 -0.08970909895579338)  rotate(0 2.8493878022680916 24.284932976596654)" opacity="1" d="M0,48.57L5.7,48.57L5.7,0L0,0L0,48.57Z " /><path id="路径 6" fill-rule="evenodd" style="fill:#4CD130" transform="translate(36.66403636798748 -0.08970909895579338)  rotate(0 12.28318487944637 24.284932976596654)" opacity="1" d="M12.32,42.58L5.9,0L0,0L8.64,48.57L15.98,48.57L24.57,0L18.74,0L12.32,42.58Z " /><path id="路径 7" fill-rule="evenodd" style="fill:#4CD130" transform="translate(64.5046258873848 -0.08970909895579338)  rotate(0 2.8493878022680863 24.284932976596654)" opacity="1" d="M0,48.57L5.7,48.57L5.7,0L0,0L0,48.57Z " /><path id="路径 8" fill-rule="evenodd" style="fill:#4CD130" transform="translate(73.4795655634473 -0.08970909895579338)  rotate(0 12.965638048055103 24.284932976596654)" opacity="1" d="M12.77,9.01L17.29,33.98L18.27,39.21L19.9,48.57L25.93,48.57L15.72,0L9.96,0L0,48.57L5.96,48.57L7.53,39.21L8.52,33.98L12.77,9.01Z " /></g></svg>