<svg xmlns="http://www.w3.org/2000/svg" xmlns:xlink="http://www.w3.org/1999/xlink" width="57" height="52" viewBox="0 0 57 52" fill="none"><g opacity="1" transform="translate(0.0022463336916445087 0)  rotate(0 28.013759213759215 26)"><path id="路径 1" fill-rule="evenodd" style="fill:#FFFFFF" transform="translate(0 10.493942331801577)  rotate(0 19.928176138339833 19.481507486807438)" opacity="1" d="M33.29,6.92C37.8,10.56 39.17,16.71 36.85,22L38.32,22.65C39.75,19.59 40.27,16.05 39.51,12.71C37.45,3.46 28,-0.9 19.13,0.15C15.53,0.58 12.13,2.09 9.24,4.28C-1.09,12.19 -2.49,28.06 3.69,38.96L10.06,35.06C7.13,30.56 6.07,24.47 6.92,19.12C8.17,10.38 15.2,3.95 24.15,4.04C27.38,4.07 30.73,4.91 33.29,6.92Z " /><path id="路径 2" fill-rule="evenodd" style="fill:#FFFFFF" transform="translate(9.600484177786143 17.102748391020214)  rotate(0 23.27872200859414 17.26793061519009)" opacity="1" d="M10.3 26.34C4.47 22.91 1.8 16.01 4.01 9.53C5.33 6.09 8.2 3.02 11.8 1.96C12.51 1.75 13.25 1.63 14 1.6L14 0C12.22 -0.03 10.46 0.35 8.86 1.11C0.4 5.09 -2.31 16.25 2.07 24.22C4.68 29.15 9.72 32.52 15.08 33.85C27.91 37.03 41.59 28.78 46.55 16.89L46.56 16.89L46.56 16.88C46.55 16.88 46.55 16.88 46.55 16.89L39.62 14.11C38.14 18.1 35.57 21.59 32.2 24.21C26.05 29.06 17.16 30.64 10.3 26.34Z" /><path id="路径 3" fill-rule="evenodd" style="fill:#FFFFFF" transform="translate(12.48864150023708 0)  rotate(0 17.18547203539021 21.578154522212277)" opacity="1" d="M11.13,40.15C7.93,39.12 5.6,36.44 4.85,33.16L3.29,33.52C3.88,36.35 5.49,39.01 7.86,40.68C10.24,42.35 13.16,43.05 16.03,43.14C24.1,43.46 31.65,38.33 33.66,30.38C35.15,24.72 34.25,18.19 31.39,13.08C25.3,2.14 11.71,-1.5 0,0.54L1.38,7.88C2.96,7.54 4.56,7.3 6.16,7.17C12.41,6.67 19.04,8.14 23.78,12.35C26.58,14.82 28.53,18.12 29.34,21.76C29.95,24.29 30.16,26.97 29.73,29.52C29.01,34.01 26.27,37.5 22.2,39.5C18.8,41.01 14.67,41.32 11.13,40.15Z " /></g></svg>