<svg xmlns="http://www.w3.org/2000/svg" xmlns:xlink="http://www.w3.org/1999/xlink" width="60" height="60" viewBox="0 0 60 60" fill="none"><path id="分组 1" fill-rule="evenodd" style="fill:#4CD130" transform="translate(0 0)  rotate(0 30 30)" opacity="1" d="M45.54 55.67L60 60L54.06 47.93C57.79 42.93 60 36.72 60 30C60 13.43 46.57 0 30 0C13.43 0 0 13.43 0 30C0 46.57 13.43 60 30 60C35.69 60 41.01 58.41 45.54 55.67Z M18.971 23.6226L18.971 23.6226L18.971 23.6326C18.971 23.6326 18.971 23.6226 18.971 23.6226Z M23.431 23.6226C23.431 18.2926 25.671 15.6326 30.161 15.6326C32.151 15.6326 33.671 16.1926 34.721 17.3226C35.761 18.4526 36.281 19.7526 36.281 21.2226C36.281 22.6926 36.061 23.7926 35.601 24.5326C35.141 25.2726 34.121 26.4626 32.541 28.1026C30.951 29.7326 29.851 30.9826 29.251 31.8226C28.641 32.6626 28.181 33.6526 27.881 34.7826C27.571 35.9126 27.421 37.4226 27.421 39.3126L31.881 39.3126C31.841 37.6926 31.961 36.4026 32.251 35.4426C32.541 34.4826 32.961 33.6526 33.521 32.9626C34.081 32.2726 35.211 31.1126 36.911 29.4726C38.611 27.8326 39.731 26.4626 40.251 25.3726C40.771 24.2726 41.041 23.0526 41.041 21.7026C41.041 18.7026 40.011 16.2926 37.971 14.4926C35.931 12.6926 33.381 11.7826 30.301 11.7826C28.791 11.7826 27.341 12.0226 25.981 12.4926C24.611 12.9626 23.381 13.7026 22.261 14.6926C21.151 15.6926 20.341 16.8226 19.831 18.0826C19.331 19.3526 19.041 21.2026 18.971 23.6226L23.431 23.6226Z M32.2288 43.4203L27.3188 43.4203L27.3188 48.5803L32.2288 48.5803L32.2288 43.4203Z " /></svg>